<svg fill="none" height="200" viewBox="0 0 258 200" width="258" xmlns="http://www.w3.org/2000/svg" xmlns:xlink="http://www.w3.org/1999/xlink"><clipPath id="a"><path d="m.431641 0h257.137v200h-257.137z"/></clipPath><g clip-path="url(#a)"><path d="m226.288 25.7286h-6.006l3.309-8.5194c.102-.2551.138-.5317.106-.8044-.032-.2728-.132-.5332-.291-.7575-.153-.2276-.36-.4132-.603-.5396-.243-.1274-.514-.1933-.788-.1917h-8.122c-.364-.0015-.718.1156-1.008.3337-.291.2198-.5.5293-.597.8803l-4.707 15.3705c-.076.2505-.093.5155-.049.7738.046.2569.15.4998.305.7099.153.2158.355.3925.59.5158.234.1233.494.1898.759.1942h5.679l-.653 10.6493c-.017.3491.083.6938.284.9797.197.2853.485.4956.817.5964.333.1076.692.1002 1.02-.0208s.607-.3486.79-.6465l10.465-17.1383c.155-.2342.241-.5073.248-.788.009-.282-.058-.5612-.192-.8094-.135-.244-.33-.4493-.568-.5963-.242-.128-.513-.1939-.788-.1917z" fill="#769cfd"/><path d="m75.4872 2.04425c35.4048-6.69483 65.3158 2.47772 95.8428 35.84535 45.437 50.4065 60.254-3.3509 80.828 42.4195 18.409 40.9569-10.166 152.5399-81.012 110.2979-34.078-20.326-137.5459 63.583-166.41952-63.512-15.08648-66.2315 10.02452-113.5638 70.76072-125.05075z" fill="#769cfd"/><path d="m53.3015 87.1953h151.9295c1.167 0 2.287.4638 3.112 1.2892.826.8255 1.29 1.9451 1.29 3.1125v81.538c0 3.777-1.501 7.399-4.172 10.07s-6.293 4.171-10.07 4.171h-132.7607c-3.7771 0-7.3995-1.5-10.0704-4.171-2.6708-2.671-4.1712-6.293-4.1712-10.07v-80.9984c.0073-1.3034.5264-2.5516 1.4454-3.4759.9189-.9243 2.1642-1.4505 3.4674-1.4654z" fill="#d3e7ff"/><path d="m188.738 13.9785h-119.4843c-3.8465 0-6.9646 3.1182-6.9646 6.9646v73.2172c0 3.8464 3.1181 6.9647 6.9646 6.9647h119.4843c3.847 0 6.965-3.1183 6.965-6.9647v-73.2172c0-3.8464-3.118-6.9646-6.965-6.9646z" fill="#d3e7ff"/><path d="m195.71 114.152v-26.9782h-133.421v26.9782c-1.9847.06-3.8679.891-5.2504 2.317-1.3826 1.425-2.1558 3.333-2.1558 5.319 0 1.985.7732 3.893 2.1558 5.318 1.3825 1.425 3.2657 2.256 5.2504 2.317h133.421c1.985-.061 3.868-.892 5.25-2.317 1.383-1.425 2.156-3.333 2.156-5.318 0-1.986-.773-3.894-2.156-5.319-1.382-1.426-3.265-2.257-5.25-2.317z" fill="#fff"/><path d="m195.918 124.482c1.611 0 2.918-1.306 2.918-2.918 0-1.611-1.307-2.918-2.918-2.918-1.612 0-2.918 1.307-2.918 2.918 0 1.612 1.306 2.918 2.918 2.918z" fill="#d3e7ff"/><path d="m61.9179 124.482c1.6115 0 2.9179-1.306 2.9179-2.918 0-1.611-1.3064-2.918-2.9179-2.918s-2.9179 1.307-2.9179 2.918c0 1.612 1.3064 2.918 2.9179 2.918z" fill="#d3e7ff"/><path d="m176.549 17.0459h-95.0981c-2.8583 0-5.1755 2.3172-5.1755 5.1755v57.1013c0 2.8584 2.3172 5.1755 5.1755 5.1755h95.0981c2.858 0 5.175-2.3171 5.175-5.1755v-57.1013c0-2.8583-2.317-5.1755-5.175-5.1755z" fill="#769cfd"/><path d="m176.28 41.8301h-55.831v24.0673h55.831z" fill="#3a57ec"/><g fill="#2027b0"><path d="m94.8404 38.6847c1.984 0 3.5923-1.6084 3.5923-3.5924s-1.6083-3.5923-3.5923-3.5923-3.5924 1.6083-3.5924 3.5923 1.6084 3.5924 3.5924 3.5924z"/><path d="m142.01 29.2491c1.984 0 3.593-1.6083 3.593-3.5923s-1.609-3.5923-3.593-3.5923-3.592 1.6083-3.592 3.5923 1.608 3.5923 3.592 3.5923z"/><path d="m158.629 29.2491c1.984 0 3.593-1.6083 3.593-3.5923s-1.609-3.5923-3.593-3.5923-3.592 1.6083-3.592 3.5923 1.608 3.5923 3.592 3.5923z"/></g><g fill="#d3e7ff"><path d="m100.74 49.0146h-19.3748v1.2283h19.3748z"/><path d="m104.928 52.0811h-23.5628v1.2282h23.5628z"/><path d="m104.928 55.1416h-23.5628v1.2282h23.5628z"/><path d="m102.309 58.2012h-20.9438v1.2282h20.9438z"/><path d="m99.1708 61.2686h-17.8056v1.2282h17.8056z"/><path d="m112.788 71.0303h-31.4228v1.7962h31.4228z"/><path d="m112.788 76.8662h-31.4228v1.7962h31.4228z"/><path d="m176.152 71.0303h-54.986v1.7962h54.986z"/><path d="m176.152 76.8662h-54.986v1.7962h54.986z"/><path d="m171.523 26.8291v1.8316h-1.839v-1.8387zm.71-.71h-3.301v3.3012h3.301z"/><path d="m170.061 27.2402h1.1v1.1005h-1.1z"/><path d="m175.412 26.8291v1.8316h-1.838v-1.8387zm.71-.71h-3.294v3.3012h3.294z"/><path d="m173.949 27.2402h1.101v1.1005h-1.101z"/><path d="m171.523 22.9385v1.8388h-1.839v-1.8388zm.71-.71h-3.301v3.3013h3.301z"/><path d="m170.061 23.3145h1.1v1.0862h-1.1z"/><path d="m175.412 22.9385v1.8388h-1.838v-1.8388zm.71-.71h-3.294v3.3013h3.294z"/><path d="m173.949 23.3145h1.101v1.0862h-1.101z"/><path d="m102.026 31.9258h-.596v6.3114h.596z"/><path d="m103.374 31.9258h-.597v6.3114h.597z"/><path d="m104.723 31.9258h-.596v6.3114h.596z"/><path d="m106.071 31.9258h-.596v6.3114h.596z"/><path d="m107.421 31.9258h-.597v6.3114h.597z"/><path d="m108.77 31.9258h-.596v6.3114h.596z"/><path d="m110.112 31.9258h-.596v6.3114h.596z"/><path d="m111.46 31.9258h-.597v6.3114h.597z"/><path d="m112.809 31.9258h-.596v6.3114h.596z"/><path d="m114.159 31.9258h-.597v6.3114h.597z"/><path d="m115.507 31.9258h-.597v6.3114h.597z"/><path d="m116.848 31.9258h-.596v6.3114h.596z"/><path d="m118.198 31.9258h-.596v6.3114h.596z"/><path d="m119.548 31.9258h-.597v6.3114h.597z"/><path d="m120.895 31.9258h-.596v6.3114h.596z"/><path d="m122.245 31.9258h-.597v6.3114h.597z"/><path d="m123.594 31.9258h-.596v6.3114h.596z"/><path d="m124.936 31.9258h-.596v6.3114h.596z"/><path d="m126.284 31.9258h-.596v6.3114h.596z"/><path d="m127.633 31.9258h-.596v6.3114h.596z"/><path d="m128.981 31.9258h-.596v6.3114h.596z"/><path d="m130.331 31.9258h-.597v6.3114h.597z"/><path d="m131.673 31.9258h-.597v6.3114h.597z"/></g><path d="m19.1251 123.084c-1.3115 0-2.5936-.389-3.684-1.117-1.0905-.729-1.9403-1.765-2.4422-2.976-.5019-1.212-.6332-2.545-.3773-3.831.2558-1.287.8873-2.468 1.8147-3.396.9273-.927 2.1089-1.558 3.3951-1.814 1.2863-.256 2.6195-.125 3.8312.377 1.2116.502 2.2472 1.352 2.9758 2.442.7287 1.091 1.1176 2.373 1.1176 3.684-.0019 1.758-.7011 3.444-1.9442 4.687-1.2432 1.243-2.9287 1.942-4.6867 1.944zm0-9.776c-.4136-.002-.8234.078-1.2059.236-.3824.157-.7298.389-1.0223.681-.2924.293-.524.64-.6814 1.022-.1574.383-.2374.793-.2355 1.206.0055.833.3387 1.629.9273 2.218.5887.588 1.3854.922 2.2178.927.8341 0 1.634-.331 2.2238-.921.5899-.59.9212-1.39.9212-2.224s-.3313-1.634-.9212-2.224c-.5898-.59-1.3897-.921-2.2238-.921z" fill="#3a57ec"/><path d="m28.0411 138.482c.0009.553-.1073 1.101-.3187 1.612-.2113.51-.5215.974-.9127 1.365s-.8558.7-1.367.91c-.5111.211-1.0588.318-1.6116.316-1.1113-.012-2.1737-.459-2.9602-1.244-.7866-.786-1.2351-1.847-1.2498-2.959-.0009-.553.1073-1.1.3186-1.612.2112-.511.5213-.975.9124-1.367.3911-.391.8556-.701 1.3668-.912s1.0591-.319 1.6122-.319c1.1126.013 2.1759.461 2.9626 1.248.7868.786 1.2345 1.85 1.2474 2.962z" fill="#d3e7ff"/></g></svg>