<svg width="190" height="150" viewBox="0 0 190 150" fill="none" xmlns="http://www.w3.org/2000/svg">
<g clip-path="url(#clip0_381_44831)">
<path d="M55.5738 1.20828C81.6644 -3.72425 101.353 6.74232 128.777 27.0949C142.121 40.0408 170.554 25.1491 185.713 58.8712C199.276 89.047 178.223 171.257 126.026 140.135C100.919 125.159 24.6919 186.981 3.41353 93.3413C-7.67027 44.5443 10.8254 9.67151 55.5738 1.20828Z" fill="#D5E6FC"/>
<path d="M94.9974 123.716C122.716 123.716 145.186 101.246 145.186 73.5275C145.186 45.8093 122.716 23.3392 94.9974 23.3392C67.2792 23.3392 44.8091 45.8093 44.8091 73.5275C44.8091 101.246 67.2792 123.716 94.9974 123.716Z" stroke="#7C9CF5" stroke-width="10" stroke-miterlimit="10"/>
<path d="M163.922 35.8824C163.922 25.656 155.633 17.3658 145.408 17.3658C135.183 17.3658 126.894 25.656 126.894 35.8824V82.3203C126.894 92.5468 135.183 100.837 145.408 100.837C155.633 100.837 163.922 92.5468 163.922 82.3203V35.8824Z" fill="#3B5CE2"/>
<path d="M145.458 68.9037C148.113 68.9026 150.708 69.6889 152.916 71.1631C155.124 72.6373 156.845 74.7331 157.862 77.1855C158.878 79.638 159.145 82.3369 158.628 84.9409C158.11 87.5448 156.833 89.9368 154.956 91.8144C153.079 93.692 150.687 94.9709 148.083 95.4892C145.48 96.0075 142.781 95.742 140.328 94.7263C137.875 93.7106 135.779 91.9903 134.304 89.7829C132.828 87.5756 132.041 84.9804 132.041 82.3255C132.045 78.768 133.46 75.3573 135.975 72.8412C138.49 70.3252 141.9 68.9092 145.458 68.9037ZM145.458 66.8114C142.389 66.8114 139.39 67.7213 136.839 69.426C134.287 71.1307 132.299 73.5537 131.125 76.3885C129.95 79.2234 129.643 82.3427 130.242 85.3522C130.84 88.3616 132.318 91.1261 134.488 93.2958C136.657 95.4655 139.422 96.943 142.431 97.5416C145.441 98.1402 148.56 97.833 151.395 96.6588C154.23 95.4846 156.653 93.4961 158.357 90.9448C160.062 88.3935 160.972 85.3939 160.972 82.3255C160.973 80.288 160.572 78.2703 159.792 76.3878C159.013 74.5052 157.87 72.7946 156.429 71.3539C154.989 69.9131 153.278 68.7704 151.396 67.991C149.513 67.2116 147.495 66.8107 145.458 66.8114Z" fill="#1B2EA8"/>
<path d="M158.581 50.8212C159.07 50.8212 159.465 50.4254 159.465 49.9372C159.465 49.449 159.07 49.0532 158.581 49.0532C158.093 49.0532 157.698 49.449 157.698 49.9372C157.698 50.4254 158.093 50.8212 158.581 50.8212Z" fill="white"/>
<path d="M158.581 54.0695C159.07 54.0695 159.465 53.6737 159.465 53.1855C159.465 52.6973 159.07 52.3015 158.581 52.3015C158.093 52.3015 157.698 52.6973 157.698 53.1855C157.698 53.6737 158.093 54.0695 158.581 54.0695Z" fill="white"/>
<path d="M158.581 57.323C159.07 57.323 159.465 56.9272 159.465 56.439C159.465 55.9508 159.07 55.555 158.581 55.555C158.093 55.555 157.698 55.9508 157.698 56.439C157.698 56.9272 158.093 57.323 158.581 57.323Z" fill="white"/>
<path d="M152.252 77.6442C152.959 79.2832 153.148 81.0989 152.795 82.8484C152.442 84.5979 151.563 86.1979 150.276 87.4347C148.99 88.6715 147.356 89.486 145.594 89.7695C143.832 90.0529 142.025 89.7918 140.415 89.0209C140.389 89.0034 140.359 88.9912 140.328 88.9851C140.297 88.9791 140.265 88.9792 140.234 88.9855C140.203 88.9918 140.173 89.0043 140.147 89.022C140.121 89.0398 140.098 89.0624 140.08 89.0888C140.063 89.1153 140.051 89.1449 140.045 89.176C140.039 89.2072 140.039 89.2392 140.045 89.2703C140.051 89.3014 140.064 89.331 140.082 89.3573C140.099 89.3836 140.122 89.4061 140.149 89.4237C141.804 90.822 143.918 91.5581 146.084 91.4901C148.25 91.4221 150.314 90.5548 151.879 89.0554C153.443 87.5559 154.397 85.5304 154.557 83.3693C154.717 81.2082 154.071 79.0644 152.744 77.3512C152.701 77.2941 152.639 77.2549 152.569 77.241C152.5 77.2271 152.427 77.2396 152.366 77.276C152.305 77.3124 152.259 77.3702 152.238 77.4382C152.217 77.5062 152.222 77.5796 152.252 77.6442Z" fill="#1B2EA8"/>
<path d="M66.2392 56.5017C66.2392 46.284 57.9561 38.0009 47.7383 38.0009C37.5206 38.0009 29.2374 46.284 29.2374 56.5017V131.499C29.2374 141.717 37.5206 150 47.7383 150C57.9561 150 66.2392 141.717 66.2392 131.499V56.5017Z" fill="#3B5CE2"/>
<path d="M47.7383 118.093C50.391 118.092 52.9845 118.878 55.1907 120.351C57.3969 121.824 59.1167 123.918 60.1326 126.368C61.1485 128.819 61.4148 131.516 60.8979 134.118C60.381 136.72 59.1041 139.11 57.2287 140.986C55.3533 142.862 52.9636 144.14 50.3619 144.658C47.7602 145.176 45.0634 144.91 42.6124 143.895C40.1615 142.881 38.0666 141.162 36.5927 138.956C35.1188 136.75 34.3321 134.157 34.3321 131.504C34.3349 127.949 35.748 124.54 38.2614 122.026C40.7748 119.512 44.1831 118.097 47.7383 118.093ZM47.7383 116.001C44.6717 116 41.6737 116.908 39.1235 118.611C36.5732 120.314 34.5852 122.735 33.411 125.568C32.2367 128.401 31.929 131.518 32.5267 134.526C33.1243 137.534 34.6004 140.297 36.7684 142.465C38.9364 144.634 41.6989 146.111 44.7065 146.71C47.7141 147.309 50.8317 147.002 53.6649 145.828C56.4981 144.655 58.9197 142.668 60.6235 140.118C62.3273 137.569 63.2368 134.571 63.2368 131.504C63.2368 127.393 61.604 123.451 58.6976 120.543C55.7913 117.636 51.8492 116.002 47.7383 116.001Z" fill="#1B2EA8"/>
<path d="M60.8516 100.026C61.3398 100.026 61.7356 99.6304 61.7356 99.1422C61.7356 98.6539 61.3398 98.2582 60.8516 98.2582C60.3634 98.2582 59.9677 98.6539 59.9677 99.1422C59.9677 99.6304 60.3634 100.026 60.8516 100.026Z" fill="white"/>
<path d="M60.8516 103.274C61.3398 103.274 61.7356 102.879 61.7356 102.39C61.7356 101.902 61.3398 101.506 60.8516 101.506C60.3634 101.506 59.9677 101.902 59.9677 102.39C59.9677 102.879 60.3634 103.274 60.8516 103.274Z" fill="white"/>
<path d="M60.8516 106.517C61.3398 106.517 61.7356 106.122 61.7356 105.633C61.7356 105.145 61.3398 104.749 60.8516 104.749C60.3634 104.749 59.9677 105.145 59.9677 105.633C59.9677 106.122 60.3634 106.517 60.8516 106.517Z" fill="white"/>
<path d="M54.308 127.498C54.971 129.038 55.1482 130.745 54.816 132.389C54.4839 134.033 53.6582 135.536 52.4492 136.698C51.2402 137.861 49.7053 138.627 48.0495 138.894C46.3937 139.161 44.6958 138.917 43.1824 138.194C43.133 138.173 43.0776 138.17 43.0261 138.185C42.9745 138.201 42.93 138.234 42.9002 138.278C42.8703 138.323 42.8572 138.377 42.8629 138.43C42.8686 138.484 42.8927 138.534 42.9313 138.571C44.487 139.885 46.4742 140.577 48.5097 140.513C50.5453 140.449 52.4852 139.634 53.9554 138.225C55.4257 136.816 56.3224 134.912 56.4724 132.881C56.6225 130.85 56.0154 128.836 54.7683 127.226C54.7322 127.165 54.6735 127.12 54.6048 127.103C54.5361 127.085 54.4632 127.095 54.4021 127.132C54.3411 127.168 54.297 127.226 54.2793 127.295C54.2616 127.364 54.272 127.437 54.308 127.498Z" fill="#1B2EA8"/>
<path d="M127.213 127.686C127.629 127.686 128.028 127.851 128.323 128.146C128.617 128.44 128.782 128.839 128.782 129.255C128.772 129.668 128.603 130.061 128.311 130.353C128.019 130.645 127.626 130.814 127.213 130.824C126.797 130.824 126.398 130.659 126.104 130.365C125.809 130.07 125.644 129.671 125.644 129.255C125.654 128.842 125.823 128.449 126.115 128.157C126.407 127.865 126.8 127.697 127.213 127.686Z" fill="#3B5CE2"/>
<path d="M71.2554 17.753C70.8871 17.753 70.5271 17.6438 70.2208 17.4392C69.9146 17.2346 69.676 16.9437 69.5351 16.6034C69.3941 16.2631 69.3572 15.8887 69.4291 15.5275C69.5009 15.1663 69.6783 14.8345 69.9387 14.5741C70.1992 14.3137 70.531 14.1364 70.8922 14.0646C71.2534 13.9927 71.6278 14.0295 71.9681 14.1704C72.3083 14.3114 72.5991 14.5501 72.8037 14.8563C73.0083 15.1625 73.1175 15.5225 73.1175 15.8908C73.1182 16.1356 73.0705 16.3781 72.9772 16.6043C72.8838 16.8305 72.7467 17.036 72.5736 17.2091C72.4006 17.3821 72.1951 17.5193 71.9688 17.6126C71.7426 17.706 71.5001 17.7537 71.2554 17.753ZM71.2554 15.0121C71.1398 15.0114 71.0253 15.0337 70.9183 15.0776C70.8114 15.1215 70.7142 15.1862 70.6324 15.2679C70.5507 15.3496 70.4861 15.4468 70.4421 15.5537C70.3982 15.6606 70.3759 15.7752 70.3766 15.8908C70.378 16.1239 70.4709 16.3473 70.6352 16.5126C70.7996 16.6779 71.0222 16.772 71.2554 16.7748C71.3768 16.7841 71.4989 16.7683 71.6139 16.7283C71.729 16.6882 71.8345 16.6249 71.9239 16.5421C72.0133 16.4593 72.0847 16.359 72.1334 16.2474C72.1822 16.1357 72.2074 16.0153 72.2074 15.8935C72.2074 15.7717 72.1822 15.6511 72.1334 15.5395C72.0847 15.4279 72.0133 15.3275 71.9239 15.2448C71.8345 15.162 71.729 15.0986 71.6139 15.0586C71.4989 15.0185 71.3768 15.0027 71.2554 15.0121Z" fill="#3B5CE2"/>
<path d="M135.007 121.843C135.469 121.842 135.926 121.932 136.354 122.108C136.781 122.284 137.169 122.543 137.495 122.87C137.822 123.196 138.081 123.585 138.257 124.012C138.433 124.439 138.523 124.896 138.522 125.358C138.511 126.287 138.137 127.175 137.48 127.832C136.823 128.489 135.936 128.862 135.007 128.873C134.545 128.875 134.087 128.785 133.66 128.609C133.233 128.432 132.845 128.174 132.518 127.847C132.192 127.52 131.933 127.132 131.757 126.705C131.58 126.278 131.49 125.82 131.492 125.358C131.503 124.429 131.877 123.542 132.533 122.885C133.19 122.228 134.078 121.854 135.007 121.843Z" fill="#7C9CF5"/>
<path d="M60.7313 16.1837C61.1933 16.1824 61.651 16.2723 62.0781 16.4485C62.5052 16.6246 62.8932 16.8835 63.2198 17.2102C63.5465 17.5369 63.8054 17.9249 63.9816 18.352C64.1577 18.7791 64.2477 19.2367 64.2463 19.6987C64.2355 20.6276 63.8616 21.5153 63.2048 22.1722C62.5479 22.829 61.6602 23.2029 60.7313 23.2137C60.2693 23.2151 59.8117 23.1252 59.3846 22.949C58.9575 22.7728 58.5695 22.5139 58.2428 22.1873C57.9161 21.8606 57.6572 21.4726 57.4811 21.0455C57.3049 20.6184 57.2149 20.1607 57.2163 19.6987C57.2272 18.7699 57.601 17.8821 58.2579 17.2253C58.9147 16.5684 59.8025 16.1946 60.7313 16.1837Z" fill="#7C9CF5"/>
</g>
<defs>
<clipPath id="clip0_381_44831">
<rect width="189.45" height="150" fill="white" transform="translate(0.275146)"/>
</clipPath>
</defs>
</svg>
