<svg fill="none" height="150" viewBox="0 0 194 150" width="194" xmlns="http://www.w3.org/2000/svg" xmlns:xlink="http://www.w3.org/1999/xlink"><clipPath id="a"><path d="m.378235 0h193.244v150h-193.244z"/></clipPath><g clip-path="url(#a)"><path d="m136.821 21.715c-1.055 0-2.087-.3129-2.964-.8991-.878-.5863-1.562-1.4196-1.965-2.3945-.404-.9749-.51-2.0476-.304-3.0826.206-1.0349.714-1.9857 1.46-2.7319s1.697-1.2543 2.732-1.4602 2.108-.1002 3.083.3036c.975.4039 1.808 1.0877 2.394 1.9651s.899 1.909.899 2.9642c0 1.4151-.562 2.7721-1.562 3.7727-1.001 1.0006-2.358 1.5627-3.773 1.5627zm0-7.8377c-.331-.0007-.659.064-.965.1903-.305.1263-.583.3118-.817.5458s-.42.5118-.546.8177c-.126.3058-.191.6336-.19.9645.005.6667.272 1.3046.743 1.7765s1.108.7402 1.775.7472c.341.0157.681-.0379 1.001-.1575.319-.1196.611-.3027.858-.5384.247-.2356.443-.5189.577-.8326s.204-.6513.204-.9924c0-.3412-.07-.6789-.204-.9926s-.33-.5969-.577-.8325-.539-.4189-.858-.5385c-.32-.1196-.66-.1732-1.001-.1575z" fill="#3b5ce2"/><path d="m56.7843 1.23236c26.6078-5.0313 46.6957 5.64487 74.6957 26.40494 13.611 13.2052 42.614-1.9847 58.076 32.4127 13.835 30.78-7.64 114.637-60.882 82.891-25.61-15.275-103.3687 47.784-125.06783-47.7306-11.33776-49.7742 7.53363-85.34533 53.17813-93.97804z" fill="#d5e6fc"/><path d="m177.605 135.946h-166.4652c-2.20999 0-4.00156 1.792-4.00156 4.002s1.79157 4.001 4.00156 4.001h166.4652c2.21 0 4.001-1.791 4.001-4.001s-1.791-4.002-4.001-4.002z" fill="#7c9cf5"/><path d="m122.858 9.3475c.002.32154-.061.64019-.183.9376-.122.2974-.302.5677-.529.7954-.227.2276-.497.408-.794.5309s-.616.1858-.937.1851c-.648-.0069-1.267-.2672-1.724-.725-.458-.4578-.718-1.07665-.725-1.724-.001-.32155.062-.64008.185-.93722s.303-.56707.531-.79419c.227-.22712.498-.40687.795-.52911s.616-.18456.938-.18315c.646.00694 1.263.26669 1.72.72346s.716 1.07427.723 1.72021z" fill="#d5e6fc"/><path d="m177.402 111.873c-.574 0-1.135-.17-1.612-.489-.478-.319-.85-.772-1.069-1.303-.22-.53-.278-1.114-.166-1.677s.389-1.08.795-1.486.923-.682 1.486-.794 1.147-.055 1.677.165.984.592 1.302 1.069c.319.477.49 1.039.49 1.613-.002.769-.308 1.506-.852 2.05s-1.281.851-2.051.852zm0-4.268c-.365 0-.715.145-.973.403s-.403.608-.403.973c.004.364.15.712.407.969.258.257.605.404.969.408.365 0 .715-.145.974-.403.258-.258.403-.609.403-.974s-.145-.715-.403-.973c-.259-.258-.609-.403-.974-.403z" fill="#3b5ce2"/><path d="m182.972 88.3811c.643-.0021 1.28.1228 1.874.3676s1.134.6046 1.589 1.0588c.454.4541.815.9938 1.06 1.5877.246.5939.371 1.2305.37 1.8731-.014 1.2933-.534 2.5297-1.448 3.4442-.915.9146-2.151 1.4345-3.445 1.4484-.643.0021-1.279-.1231-1.874-.3683-.594-.2452-1.134-.6055-1.588-1.0603s-.814-.995-1.059-1.5895c-.244-.5946-.369-1.2316-.366-1.8745.014-1.2918.533-2.5268 1.447-3.4404.913-.9135 2.148-1.4329 3.44-1.4468z" fill="#7c9cf5"/><path d="m115.586 121.605 19.208-18.381-11.69-9.6034z" fill="#1b2ea8"/><path d="m110.987 90.6968 3.287 29.8782c.037.331.19.637.431.866s.555.366.887.386c.332.021.66-.077.927-.274.268-.198.457-.484.534-.807l5.816-24.543 54.677-66.2286-68.645 56.9504z" fill="#3b5ce2"/><path d="m88.3914 75.2721 22.5956 15.4247 69.894-64.2171c.058-.041.108-.0932.147-.1534.038-.0603.064-.1274.076-.1978.013-.0703.011-.1424-.004-.2122-.016-.0697-.045-.1358-.086-.1943s-.093-.1083-.153-.1467c-.06-.0383-.128-.0644-.198-.0768s-.142-.0108-.212.0047c-.07.0154-.136.0444-.194.0854l-91.5989 45.111c-.4093.2132-.7563.5291-1.0071.9165-.2507.3875-.3967.8333-.4236 1.294-.0269.4608.0663.9207.2703 1.3347.204.4139.5119.7679.8937 1.0273z" fill="#7c9cf5"/><path d="m122.869 96.2189 57.452-70.673c.592-.7362 1.467-.0854 1.253.8323l-19.901 84.7848c-.294 1.252-.889 2.413-1.735 3.382-.845.969-1.915 1.717-3.116 2.177-1.2.461-2.495.621-3.772.467-1.276-.154-2.496-.618-3.552-1.352l-26.442-18.3056c-.104-.0696-.192-.1604-.259-.2663-.066-.1059-.11-.2245-.127-.3483-.018-.1238-.009-.2499.025-.3702.034-.1202.094-.2319.174-.3277z" fill="#7c9cf5"/><path d="m92.6651 18.4338h-63.609c-3.404 0-6.157 3.1586-6.157 7.0534v96.9288c0 3.895 2.753 7.053 6.157 7.053h63.609c3.3986 0 6.157-3.158 6.157-7.053v-96.9127c0-3.9109-2.7584-7.0695-6.157-7.0695z" fill="#fff"/><path d="m31.2063 119.407h59.3085" stroke="#7c9cf5" stroke-linecap="round" stroke-width="3"/><g fill="#1b2ea8"><path d="m85.0354 58.0493c-.9631-.0027-1.9097.2499-2.7433.7321s-1.5246 1.1768-2.0023 2.013c-.4778.8362-.7253 1.7842-.7174 2.7472s.271 1.9067.7624 2.7349l-8.718 8.7128c-.6584-.3639-1.3851-.5874-2.1342-.6563-1.1306-.1014-2.2646.1525-3.244.7264-.9794.5738-1.7553 1.439-2.2195 2.4749l-8.4833-1.6433c-.1706-.7569-.5018-1.4683-.971-2.0862-.4686-.6171-1.0639-1.1268-1.7458-1.4949s-1.4347-.5861-2.2078-.6392c-.7727-.059-1.5491.0481-2.277.314-.728.266-1.3906.6846-1.9433 1.2279-.8342.8165-1.384 1.8796-1.5685 3.0323-.1844 1.1527.0063 2.3341.5441 3.3702l-4.9832 4.978c-1.1689-.5452-2.4926-.6605-3.7381-.3258s-2.3331 1.0979-3.0712 2.1555c-.7382 1.0576-1.0797 2.3416-.9643 3.6262.1153 1.2845.68 2.4872 1.5947 3.3963.9148.9092 2.1209 1.4666 3.4061 1.5741s2.5672-.2417 3.6202-.9863c1.0531-.7446 1.8097-1.8369 2.1368-3.0844.3271-1.2476.2037-2.5705-.3486-3.736l5.074-5.074c1.2699.5384 2.6968.5747 3.9923.1012 1.2956-.4734 2.3629-1.4211 2.9864-2.6514l8.6594 1.6806c.1994.7135.5405 1.3794 1.0031 1.9581.4651.5753 1.04 1.0523 1.6913 1.4032.6546.3468 1.3727.5573 2.1109.6188.7383.0614 1.4813-.0275 2.1842-.2613.7029-.2324 1.3497-.6086 1.8993-1.1045.5551-.4906 1.0036-1.0897 1.3179-1.7606.3106-.6701.4831-1.3959.5069-2.1342.0264-.7401-.1008-1.4776-.3735-2.1662l9.1289-9.1343c.7498.2671 1.5488.3672 2.3414.2935.7925-.0737 1.5594-.3196 2.2471-.7203.6849-.4026 1.2746-.9486 1.7286-1.6007.4538-.654.7592-1.3992.8948-2.1836s.0982-1.589-.1097-2.3574c-.2079-.7685-.5811-1.4822-1.0937-2.0912-.5125-.6091-1.1519-1.0988-1.8735-1.4348-.7186-.3443-1.5029-.5299-2.2996-.5443zm-46.9517 33.2077c-.3419-.0021-.6756-.1042-.9601-.2939-.2844-.1896-.5071-.4584-.6405-.7732-.1318-.3208-.167-.6731-.1014-1.0137.0682-.338.2353-.6482.4801-.8911.2444-.2444.5556-.4113.8944-.4796.3389-.0683.6904-.0351 1.0104.0955.3738.1549.6822.4346.873.7913.1908.3568.2521.7686.1735 1.1654-.0786.3969-.2922.7542-.6046 1.0112-.3124.2571-.7042.398-1.1088.3988zm12.1274-12.4316c-.3457-.0038-.6829-.1076-.971-.2988-.2857-.1933-.5082-.4662-.6401-.7849-.1318-.3187-.1671-.6691-.1016-1.0077.0656-.3235.2217-.6217.45-.8601.2284-.2384.5197-.4071.8401-.4865.3203-.0795.6567-.0663.9699.0377.3133.1041.5906.2949.7998.5503.2091.2553.3415.5649.3817.8925.0403.3276-.0132.66-.1542.9584-.1411.2985-.3639.5508-.6426.7277-.2787.1768-.6019.2709-.932.2714zm18.7754 2.6998c-.3456.0005-.6837-.1017-.9711-.2935-.2871-.1951-.5114-.4694-.6456-.7896-.1304-.3194-.1638-.6701-.0961-1.0084.0651-.3395.2305-.6518.4749-.8964.2461-.2423.5577-.4073.8964-.4748.3387-.0692.6903-.0355 1.0097.0967.3195.1321.5921.3566.783.6449.1774.2628.2799.569.2964.8857s-.0537.6319-.2029.9117-.3719.5137-.6441.6765c-.2722.1627-.5835.2482-.9006.2472zm16.0435-16.2677c-.3418-.0021-.6756-.1042-.96-.2939-.2845-.1896-.5072-.4584-.6406-.7732-.1299-.3198-.1633-.6706-.0959-1.0091.0673-.3385.2323-.6499.4747-.8957.203-.2046.4535-.3559.7291-.4405s.5678-.0997.8507-.0442c.2829.0556.5476.1803.7707.3628.2231.1826.3977.4173.5082.6836s.1536.5558.1253.8427c-.0283.2868-.1271.5623-.2874.8018-.1604.2396-.3775.4358-.632.5712-.2545.1355-.5385.2059-.8267.2052z"/><path d="m40.4099 32.3219h-2.417l1.3019-3.42c.0414-.1031.0543-.2156.0373-.3255-.013-.1087-.0514-.2129-.112-.3041-.0646-.0888-.1485-.1617-.2454-.2134-.0998-.0485-.2092-.0741-.3202-.0748h-3.2546c-.1467.0004-.2893.0492-.4055.1388-.1133.0898-.1954.2131-.2347.3522l-1.846 6.189c-.0239.1018-.0239.2077 0 .3095.0205.1035.0636.2012.1263.286.0627.0849.1435.1548.2364.2048.0944.0478.1984.0734.3042.0748h2.2888l-.2347 4.2683c-.0041.1394.0374.2764.1183.39s.1968.1978.3299.2395c.1313.0456.2741.0456.4055 0 .1309-.05.2415-.1419.3147-.2614l4.1563-6.936c.0644-.0922.098-.2024.096-.3149.0046-.1132-.0211-.2255-.0746-.3254-.0554-.0981-.1366-.1793-.2348-.2347-.1056-.0463-.2223-.0612-.3361-.0427z"/></g></g></svg>